<svg xmlns="http://www.w3.org/2000/svg" viewBox="0 0 16 16" fill="black">
  <path d="M8.62196 3.09945C8.62196 2.93362 8.55628 2.77465 8.43902 2.65739C8.32176 2.54014 8.16278 2.47445 7.99696 2.47445C7.83114 2.47445 7.67216 2.54014 7.5549 2.65739C7.43765 2.77465 7.37196 2.93362 7.37196 3.09945V6.1626C7.37196 6.48421 7.2439 6.79261 7.01649 7.02002C6.78908 7.24743 6.48068 7.37549 6.15907 7.37549H4.32118C4.15536 7.37549 3.99638 7.44118 3.87912 7.55843C3.76187 7.67568 3.69619 7.83467 3.69618 8.00049V8.60726C3.69624 8.61042 3.69725 8.61343 3.69943 8.61572C3.7018 8.61809 3.7052 8.61963 3.70855 8.61963C3.73371 8.61963 3.75843 8.62183 3.78277 8.62484H12.2112C12.2355 8.62183 12.2602 8.61963 12.2854 8.61963C12.2887 8.61963 12.2921 8.61809 12.2945 8.61572C12.2967 8.61343 12.2977 8.61044 12.2977 8.60726V8.00049C12.2977 7.83467 12.2321 7.67568 12.1148 7.55843C11.9975 7.44119 11.8386 7.37549 11.6727 7.37549H9.83485C9.51325 7.37548 9.20483 7.24742 8.97743 7.02002C8.75004 6.79261 8.62196 6.4842 8.62196 6.1626V3.09945ZM3.08485 13.5135C3.08487 13.5143 3.08468 13.5153 3.08485 13.5161C3.08527 13.5179 3.08631 13.5199 3.08746 13.5213C3.08861 13.5227 3.09039 13.5238 3.09201 13.5246C3.09366 13.5253 3.09541 13.5259 3.09722 13.5259H5.07899L5.57769 11.5304L5.59592 11.4718C5.69909 11.1857 6.00415 11.0182 6.30555 11.0936C6.62694 11.174 6.82211 11.5 6.74175 11.8215L6.31532 13.5259H9.68055L9.25412 11.8215L9.2424 11.7609C9.19899 11.4601 9.38915 11.169 9.69032 11.0936C9.99179 11.0182 10.2975 11.1856 10.4006 11.4718L10.4182 11.5304L10.9169 13.5259H12.9C12.9019 13.5259 12.9041 13.5254 12.9058 13.5246C12.9073 13.5238 12.9086 13.5226 12.9097 13.5213C12.9109 13.5199 12.9119 13.5179 12.9123 13.5161C12.9125 13.5153 12.9123 13.5143 12.9123 13.5135L11.8375 9.82471H4.15972L3.08485 13.5135ZM9.82248 6.1626C9.82248 6.16594 9.82339 6.16935 9.82574 6.17171C9.8281 6.17407 9.83151 6.17496 9.83485 6.17497H11.6727C12.1568 6.17497 12.6215 6.36782 12.9638 6.71012C13.3059 7.05239 13.4983 7.51654 13.4983 8.00049V8.60726C13.4982 8.92878 13.3702 9.23732 13.1428 9.46468C13.1025 9.50495 13.0582 9.54019 13.0132 9.57406L14.0718 13.2023L14.079 13.231C14.1217 13.4092 14.1236 13.5949 14.0842 13.7739C14.0448 13.9528 13.9653 14.1203 13.8518 14.2642C13.7382 14.4081 13.5936 14.5247 13.4286 14.6047C13.2638 14.6845 13.0831 14.7251 12.9 14.7251V14.7257H10.4807C10.4586 14.7269 10.4367 14.727 10.4149 14.7257H5.58095C5.55919 14.727 5.53727 14.7269 5.51519 14.7257H3.09722V14.7251C2.91413 14.7251 2.73336 14.6845 2.56858 14.6047C2.40359 14.5247 2.25897 14.4081 2.1454 14.2642C2.03193 14.1203 1.95236 13.9528 1.91298 13.7739C1.87362 13.595 1.87552 13.4092 1.91818 13.231L1.92535 13.2023L2.98264 9.57601C2.93685 9.5417 2.89207 9.50561 2.85113 9.46468C2.62377 9.23732 2.49572 8.92879 2.49566 8.60726V8.00049C2.49567 7.51641 2.68852 7.05242 3.03082 6.71012C3.37312 6.36783 3.8371 6.17497 4.32118 6.17497H6.15907C6.16242 6.17497 6.16582 6.17408 6.16819 6.17171C6.17055 6.16934 6.17144 6.16595 6.17144 6.1626V3.09945C6.17144 2.61536 6.3643 2.15138 6.7066 1.80908C7.04889 1.46678 7.51288 1.27393 7.99696 1.27393C8.48104 1.27393 8.94502 1.46679 9.28733 1.80908C9.62963 2.15138 9.82248 2.61536 9.82248 3.09945V6.1626Z" />
</svg>